%TF.GenerationSoftware,KiCad,Pcbnew,(6.0.6)*%
%TF.CreationDate,2023-09-23T12:19:05+03:00*%
%TF.ProjectId,leds_rme,6c656473-fc72-46d6-952e-6b696361645f,rev?*%
%TF.SameCoordinates,Original*%
%TF.FileFunction,Copper,L1,Top*%
%TF.FilePolarity,Positive*%
%FSLAX46Y46*%
G04 Gerber Fmt 4.6, Leading zero omitted, Abs format (unit mm)*
G04 Created by KiCad (PCBNEW (6.0.6)) date 2023-09-23 12:19:05*
%MOMM*%
%LPD*%
G01*
G04 APERTURE LIST*
%TA.AperFunction,ComponentPad*%
%ADD10R,1.600000X1.600000*%
%TD*%
%TA.AperFunction,ComponentPad*%
%ADD11C,1.600000*%
%TD*%
%TA.AperFunction,SMDPad,CuDef*%
%ADD12R,0.500000X1.050000*%
%TD*%
%TA.AperFunction,ComponentPad*%
%ADD13C,1.800000*%
%TD*%
%TA.AperFunction,ComponentPad*%
%ADD14O,1.600000X1.600000*%
%TD*%
%TA.AperFunction,ComponentPad*%
%ADD15R,1.700000X1.700000*%
%TD*%
%TA.AperFunction,ComponentPad*%
%ADD16O,1.700000X1.700000*%
%TD*%
%TA.AperFunction,SMDPad,CuDef*%
%ADD17R,1.550000X0.650000*%
%TD*%
%TA.AperFunction,SMDPad,CuDef*%
%ADD18R,1.500000X0.900000*%
%TD*%
%TA.AperFunction,SMDPad,CuDef*%
%ADD19R,1.500000X3.200000*%
%TD*%
%TA.AperFunction,SMDPad,CuDef*%
%ADD20R,1.100000X0.700000*%
%TD*%
%TA.AperFunction,SMDPad,CuDef*%
%ADD21R,1.800000X0.700000*%
%TD*%
%TA.AperFunction,SMDPad,CuDef*%
%ADD22R,2.800000X2.000000*%
%TD*%
%TA.AperFunction,ComponentPad*%
%ADD23R,1.160000X1.160000*%
%TD*%
%TA.AperFunction,ComponentPad*%
%ADD24C,1.160000*%
%TD*%
%TA.AperFunction,ViaPad*%
%ADD25C,2.000000*%
%TD*%
%TA.AperFunction,ViaPad*%
%ADD26C,0.800000*%
%TD*%
%TA.AperFunction,Conductor*%
%ADD27C,0.350000*%
%TD*%
%TA.AperFunction,Conductor*%
%ADD28C,0.250000*%
%TD*%
%TA.AperFunction,Conductor*%
%ADD29C,1.000000*%
%TD*%
G04 APERTURE END LIST*
D10*
%TO.P,C3,1*%
%TO.N,Net-(C3-Pad1)*%
X79500000Y-75000000D03*
D11*
%TO.P,C3,2*%
%TO.N,GND*%
X77000000Y-75000000D03*
%TD*%
D12*
%TO.P,D1,1*%
%TO.N,Net-(C1-Pad1)*%
X50000000Y-50138000D03*
%TO.P,D1,2*%
%TO.N,Net-(D1-Pad2)*%
X50000000Y-47862000D03*
%TD*%
D13*
%TO.P,VR1,1,CCW*%
%TO.N,Net-(R8-Pad2)*%
X99950000Y-76000000D03*
%TO.P,VR1,2,WIPER*%
%TO.N,Net-(C3-Pad1)*%
X99950000Y-71000000D03*
%TO.P,VR1,3,CW*%
%TO.N,unconnected-(VR1-Pad3)*%
X99950000Y-66000000D03*
%TD*%
D11*
%TO.P,R2,1*%
%TO.N,Net-(Q1-Pad3)*%
X61650000Y-53000000D03*
D14*
%TO.P,R2,2*%
%TO.N,GND*%
X74350000Y-53000000D03*
%TD*%
D11*
%TO.P,R4,1*%
%TO.N,Net-(IC1-Pad6)*%
X61650000Y-61000000D03*
D14*
%TO.P,R4,2*%
%TO.N,GND*%
X74350000Y-61000000D03*
%TD*%
D11*
%TO.P,R8,1*%
%TO.N,Net-(IC3-Pad7)*%
X87150000Y-60000000D03*
D14*
%TO.P,R8,2*%
%TO.N,Net-(R8-Pad2)*%
X99850000Y-60000000D03*
%TD*%
D15*
%TO.P,J1,1,Pin_1*%
%TO.N,Net-(D1-Pad2)*%
X46500000Y-49225000D03*
D16*
%TO.P,J1,2,Pin_2*%
%TO.N,GND*%
X46500000Y-51765000D03*
%TD*%
D11*
%TO.P,R6,1*%
%TO.N,Net-(IC1-Pad3)*%
X61650000Y-49000000D03*
D14*
%TO.P,R6,2*%
%TO.N,GND*%
X74350000Y-49000000D03*
%TD*%
D11*
%TO.P,C1,1*%
%TO.N,Net-(C1-Pad1)*%
X50000000Y-52250000D03*
%TO.P,C1,2*%
%TO.N,GND*%
X50000000Y-54750000D03*
%TD*%
%TO.P,R3,1*%
%TO.N,Net-(IC3-Pad3)*%
X74350000Y-65000000D03*
D14*
%TO.P,R3,2*%
%TO.N,Net-(IC1-Pad6)*%
X61650000Y-65000000D03*
%TD*%
D17*
%TO.P,IC1,1,NC_1*%
%TO.N,unconnected-(IC1-Pad1)*%
X52775000Y-48595000D03*
%TO.P,IC1,2,VS*%
%TO.N,Net-(C1-Pad1)*%
X52775000Y-49865000D03*
%TO.P,IC1,3,VSENSE*%
%TO.N,Net-(IC1-Pad3)*%
X52775000Y-51135000D03*
%TO.P,IC1,4,GND*%
%TO.N,GND*%
X52775000Y-52405000D03*
%TO.P,IC1,5,NC_2*%
%TO.N,unconnected-(IC1-Pad5)*%
X58225000Y-52405000D03*
%TO.P,IC1,6,EN*%
%TO.N,Net-(IC1-Pad6)*%
X58225000Y-51135000D03*
%TO.P,IC1,7,OUT*%
%TO.N,Net-(IC1-Pad7)*%
X58225000Y-49865000D03*
%TO.P,IC1,8,NC_3*%
%TO.N,unconnected-(IC1-Pad8)*%
X58225000Y-48595000D03*
%TD*%
D18*
%TO.P,IC2,1,VI*%
%TO.N,Net-(C1-Pad1)*%
X52750000Y-54700000D03*
%TO.P,IC2,2,GND_1*%
%TO.N,GND*%
X52750000Y-57000000D03*
%TO.P,IC2,3,VQ*%
%TO.N,Net-(C2-Pad1)*%
X52750000Y-59300000D03*
D19*
%TO.P,IC2,4,GND_2*%
%TO.N,GND*%
X59250000Y-57000000D03*
%TD*%
D10*
%TO.P,C2,1*%
%TO.N,Net-(C2-Pad1)*%
X52882323Y-75000000D03*
D11*
%TO.P,C2,2*%
%TO.N,GND*%
X55382323Y-75000000D03*
%TD*%
D20*
%TO.P,Q1,1,E*%
%TO.N,Net-(IC1-Pad3)*%
X80750000Y-49000000D03*
D21*
%TO.P,Q1,2,C_1*%
%TO.N,Net-(J2-Pad2)*%
X80400000Y-50500000D03*
D20*
%TO.P,Q1,3,B*%
%TO.N,Net-(Q1-Pad3)*%
X80750000Y-52000000D03*
D22*
%TO.P,Q1,4,C_2*%
%TO.N,Net-(J2-Pad2)*%
X78100000Y-50500000D03*
%TD*%
D11*
%TO.P,R1,1*%
%TO.N,Net-(IC1-Pad7)*%
X61650000Y-57000000D03*
D14*
%TO.P,R1,2*%
%TO.N,Net-(Q1-Pad3)*%
X74350000Y-57000000D03*
%TD*%
D15*
%TO.P,J2,1,Pin_1*%
%TO.N,Net-(C1-Pad1)*%
X86775000Y-48500000D03*
D16*
%TO.P,J2,2,Pin_2*%
%TO.N,Net-(J2-Pad2)*%
X84235000Y-48500000D03*
%TD*%
D11*
%TO.P,R7,1*%
%TO.N,Net-(C2-Pad1)*%
X87150000Y-56000000D03*
D14*
%TO.P,R7,2*%
%TO.N,Net-(IC3-Pad7)*%
X99850000Y-56000000D03*
%TD*%
D11*
%TO.P,R5,1*%
%TO.N,Net-(C2-Pad1)*%
X74350000Y-68500000D03*
D14*
%TO.P,R5,2*%
%TO.N,Net-(IC3-Pad3)*%
X61650000Y-68500000D03*
%TD*%
D23*
%TO.P,IC3,1,GND*%
%TO.N,GND*%
X77030000Y-55690000D03*
D24*
%TO.P,IC3,2,TRIGGER*%
%TO.N,Net-(C3-Pad1)*%
X77030000Y-58230000D03*
%TO.P,IC3,3,OUTPUT*%
%TO.N,Net-(IC3-Pad3)*%
X77030000Y-60770000D03*
%TO.P,IC3,4,RESET*%
%TO.N,Net-(C2-Pad1)*%
X77030000Y-63310000D03*
%TO.P,IC3,5,CONTROL_VOLTAGE*%
%TO.N,unconnected-(IC3-Pad5)*%
X84970000Y-63310000D03*
%TO.P,IC3,6,THRESHOLD*%
%TO.N,Net-(C3-Pad1)*%
X84970000Y-60770000D03*
%TO.P,IC3,7,DISCHARGE*%
%TO.N,Net-(IC3-Pad7)*%
X84970000Y-58230000D03*
%TO.P,IC3,8,VCC*%
%TO.N,Net-(C2-Pad1)*%
X84970000Y-55690000D03*
%TD*%
D25*
%TO.N,*%
X103000500Y-47999500D03*
X45500000Y-79500000D03*
D26*
%TO.N,GND*%
X59500000Y-54500000D03*
X55000000Y-54500000D03*
%TD*%
D27*
%TO.N,Net-(C1-Pad1)*%
X52750000Y-54700000D02*
X52450000Y-54700000D01*
X53135000Y-49865000D02*
X52775000Y-49865000D01*
X52775000Y-49865000D02*
X50273000Y-49865000D01*
X86775000Y-48500000D02*
X85400000Y-47125000D01*
X50000000Y-52250000D02*
X50000000Y-50138000D01*
X50273000Y-49865000D02*
X50000000Y-50138000D01*
X55875000Y-47125000D02*
X53135000Y-49865000D01*
X52450000Y-54700000D02*
X50000000Y-52250000D01*
X85400000Y-47125000D02*
X55875000Y-47125000D01*
D28*
%TO.N,GND*%
X52775000Y-52405000D02*
X52905000Y-52405000D01*
X59500000Y-54500000D02*
X59250000Y-54750000D01*
X55000000Y-56000000D02*
X55000000Y-54500000D01*
X52905000Y-52405000D02*
X55000000Y-54500000D01*
X52750000Y-57000000D02*
X54000000Y-57000000D01*
X54000000Y-57000000D02*
X55000000Y-56000000D01*
X59250000Y-54750000D02*
X59250000Y-57000000D01*
%TO.N,Net-(C2-Pad1)*%
X52750000Y-74867677D02*
X52882323Y-75000000D01*
X52750000Y-59300000D02*
X52750000Y-74867677D01*
%TO.N,Net-(C3-Pad1)*%
X77030000Y-58230000D02*
X82430000Y-58230000D01*
X82430000Y-58230000D02*
X84970000Y-60770000D01*
D29*
%TO.N,Net-(D1-Pad2)*%
X46500000Y-49225000D02*
X46500000Y-49000000D01*
X46500000Y-49000000D02*
X47638000Y-47862000D01*
X47638000Y-47862000D02*
X50000000Y-47862000D01*
D28*
%TO.N,Net-(IC1-Pad3)*%
X56445000Y-47945000D02*
X53255000Y-51135000D01*
X61650000Y-49000000D02*
X60595000Y-47945000D01*
X79625000Y-47875000D02*
X62775000Y-47875000D01*
X53255000Y-51135000D02*
X52775000Y-51135000D01*
X80750000Y-49000000D02*
X79625000Y-47875000D01*
X60595000Y-47945000D02*
X56445000Y-47945000D01*
X62775000Y-47875000D02*
X61650000Y-49000000D01*
%TO.N,Net-(IC1-Pad6)*%
X59000000Y-61000000D02*
X61650000Y-61000000D01*
X58225000Y-51135000D02*
X57745000Y-51135000D01*
X57745000Y-51135000D02*
X57125000Y-51755000D01*
X57125000Y-59125000D02*
X59000000Y-61000000D01*
X57125000Y-51755000D02*
X57125000Y-59125000D01*
%TO.N,Net-(IC1-Pad7)*%
X61650000Y-57000000D02*
X61650000Y-56580000D01*
X60500000Y-55850000D02*
X61650000Y-57000000D01*
X60500000Y-51690000D02*
X60500000Y-55850000D01*
X58675000Y-49865000D02*
X60500000Y-51690000D01*
X58225000Y-49865000D02*
X58675000Y-49865000D01*
%TO.N,Net-(J2-Pad2)*%
X82235000Y-50500000D02*
X80400000Y-50500000D01*
X84235000Y-48500000D02*
X82235000Y-50500000D01*
%TO.N,Net-(Q1-Pad3)*%
X74350000Y-56560000D02*
X74350000Y-57000000D01*
X78910000Y-52000000D02*
X74350000Y-56560000D01*
X80750000Y-52000000D02*
X78910000Y-52000000D01*
%TD*%
M02*
