%TF.GenerationSoftware,KiCad,Pcbnew,(6.0.6)*%
%TF.CreationDate,2023-09-23T12:19:06+03:00*%
%TF.ProjectId,leds_rme,6c656473-fc72-46d6-952e-6b696361645f,rev?*%
%TF.SameCoordinates,Original*%
%TF.FileFunction,Soldermask,Top*%
%TF.FilePolarity,Negative*%
%FSLAX46Y46*%
G04 Gerber Fmt 4.6, Leading zero omitted, Abs format (unit mm)*
G04 Created by KiCad (PCBNEW (6.0.6)) date 2023-09-23 12:19:06*
%MOMM*%
%LPD*%
G01*
G04 APERTURE LIST*
%ADD10R,1.600000X1.600000*%
%ADD11C,1.600000*%
%ADD12R,0.500000X1.050000*%
%ADD13C,1.800000*%
%ADD14O,1.600000X1.600000*%
%ADD15R,1.700000X1.700000*%
%ADD16O,1.700000X1.700000*%
%ADD17R,1.550000X0.650000*%
%ADD18R,1.500000X0.900000*%
%ADD19R,1.500000X3.200000*%
%ADD20R,1.100000X0.700000*%
%ADD21R,1.800000X0.700000*%
%ADD22R,2.800000X2.000000*%
%ADD23R,1.160000X1.160000*%
%ADD24C,1.160000*%
G04 APERTURE END LIST*
D10*
%TO.C,C3*%
X79500000Y-75000000D03*
D11*
X77000000Y-75000000D03*
%TD*%
D12*
%TO.C,D1*%
X50000000Y-50138000D03*
X50000000Y-47862000D03*
%TD*%
D13*
%TO.C,VR1*%
X99950000Y-76000000D03*
X99950000Y-71000000D03*
X99950000Y-66000000D03*
%TD*%
D11*
%TO.C,R2*%
X61650000Y-53000000D03*
D14*
X74350000Y-53000000D03*
%TD*%
D11*
%TO.C,R4*%
X61650000Y-61000000D03*
D14*
X74350000Y-61000000D03*
%TD*%
D11*
%TO.C,R8*%
X87150000Y-60000000D03*
D14*
X99850000Y-60000000D03*
%TD*%
D15*
%TO.C,J1*%
X46500000Y-49225000D03*
D16*
X46500000Y-51765000D03*
%TD*%
D11*
%TO.C,R6*%
X61650000Y-49000000D03*
D14*
X74350000Y-49000000D03*
%TD*%
D11*
%TO.C,C1*%
X50000000Y-52250000D03*
X50000000Y-54750000D03*
%TD*%
%TO.C,R3*%
X74350000Y-65000000D03*
D14*
X61650000Y-65000000D03*
%TD*%
D17*
%TO.C,IC1*%
X52775000Y-48595000D03*
X52775000Y-49865000D03*
X52775000Y-51135000D03*
X52775000Y-52405000D03*
X58225000Y-52405000D03*
X58225000Y-51135000D03*
X58225000Y-49865000D03*
X58225000Y-48595000D03*
%TD*%
D18*
%TO.C,IC2*%
X52750000Y-54700000D03*
X52750000Y-57000000D03*
X52750000Y-59300000D03*
D19*
X59250000Y-57000000D03*
%TD*%
D10*
%TO.C,C2*%
X52882323Y-75000000D03*
D11*
X55382323Y-75000000D03*
%TD*%
D20*
%TO.C,Q1*%
X80750000Y-49000000D03*
D21*
X80400000Y-50500000D03*
D20*
X80750000Y-52000000D03*
D22*
X78100000Y-50500000D03*
%TD*%
D11*
%TO.C,R1*%
X61650000Y-57000000D03*
D14*
X74350000Y-57000000D03*
%TD*%
D15*
%TO.C,J2*%
X86775000Y-48500000D03*
D16*
X84235000Y-48500000D03*
%TD*%
D11*
%TO.C,R7*%
X87150000Y-56000000D03*
D14*
X99850000Y-56000000D03*
%TD*%
D11*
%TO.C,R5*%
X74350000Y-68500000D03*
D14*
X61650000Y-68500000D03*
%TD*%
D23*
%TO.C,IC3*%
X77030000Y-55690000D03*
D24*
X77030000Y-58230000D03*
X77030000Y-60770000D03*
X77030000Y-63310000D03*
X84970000Y-63310000D03*
X84970000Y-60770000D03*
X84970000Y-58230000D03*
X84970000Y-55690000D03*
%TD*%
M02*
