%TF.GenerationSoftware,KiCad,Pcbnew,(6.0.6)*%
%TF.CreationDate,2023-09-23T12:19:06+03:00*%
%TF.ProjectId,leds_rme,6c656473-fc72-46d6-952e-6b696361645f,rev?*%
%TF.SameCoordinates,Original*%
%TF.FileFunction,Legend,Top*%
%TF.FilePolarity,Positive*%
%FSLAX46Y46*%
G04 Gerber Fmt 4.6, Leading zero omitted, Abs format (unit mm)*
G04 Created by KiCad (PCBNEW (6.0.6)) date 2023-09-23 12:19:06*
%MOMM*%
%LPD*%
G01*
G04 APERTURE LIST*
%ADD10C,0.150000*%
%ADD11C,0.125000*%
%ADD12C,0.254000*%
%ADD13C,0.120000*%
%ADD14C,0.200000*%
%ADD15C,0.100000*%
G04 APERTURE END LIST*
D10*
X102000000Y-47500000D02*
X88500000Y-47500000D01*
X88500000Y-47500000D02*
X88500000Y-54000000D01*
X88500000Y-54000000D02*
X102000000Y-54000000D01*
X102000000Y-54000000D02*
X102000000Y-47500000D01*
D11*
X89327886Y-50571428D02*
X89271934Y-50714285D01*
X89139791Y-50857142D01*
X89063601Y-50857142D01*
X88967172Y-50714285D01*
X88926696Y-50428571D01*
X88924315Y-50142857D01*
X88957648Y-49571428D01*
X89011220Y-49142857D01*
X89120744Y-48571428D01*
X89194553Y-48285714D01*
X89306458Y-48000000D01*
X89438601Y-47857142D01*
X89514791Y-47857142D01*
X89611220Y-48000000D01*
X89631458Y-48142857D01*
X89704077Y-50000000D02*
X90085029Y-50000000D01*
X89520744Y-50857142D02*
X90162410Y-47857142D01*
X90054077Y-50857142D01*
X90320744Y-50857142D02*
X90695744Y-47857142D01*
X90777886Y-50857142D01*
X91152886Y-47857142D01*
X91158839Y-50857142D02*
X91533839Y-47857142D01*
X91615982Y-50857142D02*
X91487410Y-49142857D01*
X91990982Y-47857142D02*
X91319553Y-49571428D01*
X92333839Y-47857142D02*
X92030267Y-50285714D01*
X92032648Y-50571428D01*
X92052886Y-50714285D01*
X92111220Y-50857142D01*
X92263601Y-50857142D01*
X92357648Y-50714285D01*
X92413601Y-50571428D01*
X92487410Y-50285714D01*
X92790982Y-47857142D01*
X93254077Y-50857142D02*
X93165982Y-49428571D01*
X92796934Y-50857142D02*
X93171934Y-47857142D01*
X93476696Y-47857142D01*
X93535029Y-48000000D01*
X93555267Y-48142857D01*
X93557648Y-48428571D01*
X93504077Y-48857142D01*
X93430267Y-49142857D01*
X93374315Y-49285714D01*
X93280267Y-49428571D01*
X92975505Y-49428571D01*
X93857648Y-47857142D02*
X94314791Y-47857142D01*
X93711220Y-50857142D02*
X94086220Y-47857142D01*
X95012410Y-49285714D02*
X95279077Y-49285714D01*
X95196934Y-50857142D02*
X94815982Y-50857142D01*
X95190982Y-47857142D01*
X95571934Y-47857142D01*
X95920744Y-50857142D02*
X95539791Y-50857142D01*
X95914791Y-47857142D01*
X96383839Y-49285714D02*
X96650505Y-49285714D01*
X96568363Y-50857142D02*
X96187410Y-50857142D01*
X96562410Y-47857142D01*
X96943363Y-47857142D01*
X97404077Y-50571428D02*
X97348125Y-50714285D01*
X97215982Y-50857142D01*
X97139791Y-50857142D01*
X97043363Y-50714285D01*
X97002886Y-50428571D01*
X97000505Y-50142857D01*
X97033839Y-49571428D01*
X97087410Y-49142857D01*
X97196934Y-48571428D01*
X97270744Y-48285714D01*
X97382648Y-48000000D01*
X97514791Y-47857142D01*
X97590982Y-47857142D01*
X97687410Y-48000000D01*
X97707648Y-48142857D01*
X97971934Y-47857142D02*
X98429077Y-47857142D01*
X97825505Y-50857142D02*
X98200505Y-47857142D01*
X98777886Y-50857142D02*
X98689791Y-49428571D01*
X98320744Y-50857142D02*
X98695744Y-47857142D01*
X99000505Y-47857142D01*
X99058839Y-48000000D01*
X99079077Y-48142857D01*
X99081458Y-48428571D01*
X99027886Y-48857142D01*
X98954077Y-49142857D01*
X98898125Y-49285714D01*
X98804077Y-49428571D01*
X98499315Y-49428571D01*
X99648125Y-47857142D02*
X99800505Y-47857142D01*
X99858839Y-48000000D01*
X99899315Y-48285714D01*
X99865982Y-48857142D01*
X99740982Y-49857142D01*
X99631458Y-50428571D01*
X99519553Y-50714285D01*
X99425505Y-50857142D01*
X99273125Y-50857142D01*
X99214791Y-50714285D01*
X99174315Y-50428571D01*
X99207648Y-49857142D01*
X99332648Y-48857142D01*
X99442172Y-48285714D01*
X99554077Y-48000000D01*
X99648125Y-47857142D01*
X99958839Y-50857142D02*
X100333839Y-47857142D01*
X100415982Y-50857142D01*
X100790982Y-47857142D01*
X100796934Y-50857142D02*
X101171934Y-47857142D01*
X101670744Y-50571428D02*
X101614791Y-50714285D01*
X101482648Y-50857142D01*
X101406458Y-50857142D01*
X101310029Y-50714285D01*
X101269553Y-50428571D01*
X101267172Y-50142857D01*
X101300505Y-49571428D01*
X101354077Y-49142857D01*
X101463601Y-48571428D01*
X101537410Y-48285714D01*
X101649315Y-48000000D01*
X101781458Y-47857142D01*
X101857648Y-47857142D01*
X101954077Y-48000000D01*
X101974315Y-48142857D01*
D10*
%TO.C,C3*%
X71333333Y-75357142D02*
X71285714Y-75404761D01*
X71142857Y-75452380D01*
X71047619Y-75452380D01*
X70904761Y-75404761D01*
X70809523Y-75309523D01*
X70761904Y-75214285D01*
X70714285Y-75023809D01*
X70714285Y-74880952D01*
X70761904Y-74690476D01*
X70809523Y-74595238D01*
X70904761Y-74500000D01*
X71047619Y-74452380D01*
X71142857Y-74452380D01*
X71285714Y-74500000D01*
X71333333Y-74547619D01*
X71666666Y-74452380D02*
X72285714Y-74452380D01*
X71952380Y-74833333D01*
X72095238Y-74833333D01*
X72190476Y-74880952D01*
X72238095Y-74928571D01*
X72285714Y-75023809D01*
X72285714Y-75261904D01*
X72238095Y-75357142D01*
X72190476Y-75404761D01*
X72095238Y-75452380D01*
X71809523Y-75452380D01*
X71714285Y-75404761D01*
X71666666Y-75357142D01*
D12*
%TO.C,D1*%
X50574523Y-49937380D02*
X49304523Y-49937380D01*
X49304523Y-49635000D01*
X49365000Y-49453571D01*
X49485952Y-49332619D01*
X49606904Y-49272142D01*
X49848809Y-49211666D01*
X50030238Y-49211666D01*
X50272142Y-49272142D01*
X50393095Y-49332619D01*
X50514047Y-49453571D01*
X50574523Y-49635000D01*
X50574523Y-49937380D01*
X50574523Y-48002142D02*
X50574523Y-48727857D01*
X50574523Y-48365000D02*
X49304523Y-48365000D01*
X49485952Y-48485952D01*
X49606904Y-48606904D01*
X49667380Y-48727857D01*
%TO.C,VR1*%
X96304523Y-72163095D02*
X97574523Y-71739761D01*
X96304523Y-71316428D01*
X97574523Y-70167380D02*
X96969761Y-70590714D01*
X97574523Y-70893095D02*
X96304523Y-70893095D01*
X96304523Y-70409285D01*
X96365000Y-70288333D01*
X96425476Y-70227857D01*
X96546428Y-70167380D01*
X96727857Y-70167380D01*
X96848809Y-70227857D01*
X96909285Y-70288333D01*
X96969761Y-70409285D01*
X96969761Y-70893095D01*
X97574523Y-68957857D02*
X97574523Y-69683571D01*
X97574523Y-69320714D02*
X96304523Y-69320714D01*
X96485952Y-69441666D01*
X96606904Y-69562619D01*
X96667380Y-69683571D01*
D10*
%TO.C,R2*%
X67833333Y-53452380D02*
X67500000Y-52976190D01*
X67261904Y-53452380D02*
X67261904Y-52452380D01*
X67642857Y-52452380D01*
X67738095Y-52500000D01*
X67785714Y-52547619D01*
X67833333Y-52642857D01*
X67833333Y-52785714D01*
X67785714Y-52880952D01*
X67738095Y-52928571D01*
X67642857Y-52976190D01*
X67261904Y-52976190D01*
X68214285Y-52547619D02*
X68261904Y-52500000D01*
X68357142Y-52452380D01*
X68595238Y-52452380D01*
X68690476Y-52500000D01*
X68738095Y-52547619D01*
X68785714Y-52642857D01*
X68785714Y-52738095D01*
X68738095Y-52880952D01*
X68166666Y-53452380D01*
X68785714Y-53452380D01*
%TO.C,R4*%
X67333333Y-61452380D02*
X67000000Y-60976190D01*
X66761904Y-61452380D02*
X66761904Y-60452380D01*
X67142857Y-60452380D01*
X67238095Y-60500000D01*
X67285714Y-60547619D01*
X67333333Y-60642857D01*
X67333333Y-60785714D01*
X67285714Y-60880952D01*
X67238095Y-60928571D01*
X67142857Y-60976190D01*
X66761904Y-60976190D01*
X68190476Y-60785714D02*
X68190476Y-61452380D01*
X67952380Y-60404761D02*
X67714285Y-61119047D01*
X68333333Y-61119047D01*
%TO.C,R8*%
X93333333Y-60452380D02*
X93000000Y-59976190D01*
X92761904Y-60452380D02*
X92761904Y-59452380D01*
X93142857Y-59452380D01*
X93238095Y-59500000D01*
X93285714Y-59547619D01*
X93333333Y-59642857D01*
X93333333Y-59785714D01*
X93285714Y-59880952D01*
X93238095Y-59928571D01*
X93142857Y-59976190D01*
X92761904Y-59976190D01*
X93904761Y-59880952D02*
X93809523Y-59833333D01*
X93761904Y-59785714D01*
X93714285Y-59690476D01*
X93714285Y-59642857D01*
X93761904Y-59547619D01*
X93809523Y-59500000D01*
X93904761Y-59452380D01*
X94095238Y-59452380D01*
X94190476Y-59500000D01*
X94238095Y-59547619D01*
X94285714Y-59642857D01*
X94285714Y-59690476D01*
X94238095Y-59785714D01*
X94190476Y-59833333D01*
X94095238Y-59880952D01*
X93904761Y-59880952D01*
X93809523Y-59928571D01*
X93761904Y-59976190D01*
X93714285Y-60071428D01*
X93714285Y-60261904D01*
X93761904Y-60357142D01*
X93809523Y-60404761D01*
X93904761Y-60452380D01*
X94095238Y-60452380D01*
X94190476Y-60404761D01*
X94238095Y-60357142D01*
X94285714Y-60261904D01*
X94285714Y-60071428D01*
X94238095Y-59976190D01*
X94190476Y-59928571D01*
X94095238Y-59880952D01*
%TO.C,J1*%
X46166666Y-53952380D02*
X46166666Y-54666666D01*
X46119047Y-54809523D01*
X46023809Y-54904761D01*
X45880952Y-54952380D01*
X45785714Y-54952380D01*
X47166666Y-54952380D02*
X46595238Y-54952380D01*
X46880952Y-54952380D02*
X46880952Y-53952380D01*
X46785714Y-54095238D01*
X46690476Y-54190476D01*
X46595238Y-54238095D01*
%TO.C,R6*%
X67833333Y-49452380D02*
X67500000Y-48976190D01*
X67261904Y-49452380D02*
X67261904Y-48452380D01*
X67642857Y-48452380D01*
X67738095Y-48500000D01*
X67785714Y-48547619D01*
X67833333Y-48642857D01*
X67833333Y-48785714D01*
X67785714Y-48880952D01*
X67738095Y-48928571D01*
X67642857Y-48976190D01*
X67261904Y-48976190D01*
X68690476Y-48452380D02*
X68500000Y-48452380D01*
X68404761Y-48500000D01*
X68357142Y-48547619D01*
X68261904Y-48690476D01*
X68214285Y-48880952D01*
X68214285Y-49261904D01*
X68261904Y-49357142D01*
X68309523Y-49404761D01*
X68404761Y-49452380D01*
X68595238Y-49452380D01*
X68690476Y-49404761D01*
X68738095Y-49357142D01*
X68785714Y-49261904D01*
X68785714Y-49023809D01*
X68738095Y-48928571D01*
X68690476Y-48880952D01*
X68595238Y-48833333D01*
X68404761Y-48833333D01*
X68309523Y-48880952D01*
X68261904Y-48928571D01*
X68214285Y-49023809D01*
%TO.C,C1*%
X49833333Y-56857142D02*
X49785714Y-56904761D01*
X49642857Y-56952380D01*
X49547619Y-56952380D01*
X49404761Y-56904761D01*
X49309523Y-56809523D01*
X49261904Y-56714285D01*
X49214285Y-56523809D01*
X49214285Y-56380952D01*
X49261904Y-56190476D01*
X49309523Y-56095238D01*
X49404761Y-56000000D01*
X49547619Y-55952380D01*
X49642857Y-55952380D01*
X49785714Y-56000000D01*
X49833333Y-56047619D01*
X50785714Y-56952380D02*
X50214285Y-56952380D01*
X50500000Y-56952380D02*
X50500000Y-55952380D01*
X50404761Y-56095238D01*
X50309523Y-56190476D01*
X50214285Y-56238095D01*
%TO.C,R3*%
X67833333Y-65452380D02*
X67500000Y-64976190D01*
X67261904Y-65452380D02*
X67261904Y-64452380D01*
X67642857Y-64452380D01*
X67738095Y-64500000D01*
X67785714Y-64547619D01*
X67833333Y-64642857D01*
X67833333Y-64785714D01*
X67785714Y-64880952D01*
X67738095Y-64928571D01*
X67642857Y-64976190D01*
X67261904Y-64976190D01*
X68166666Y-64452380D02*
X68785714Y-64452380D01*
X68452380Y-64833333D01*
X68595238Y-64833333D01*
X68690476Y-64880952D01*
X68738095Y-64928571D01*
X68785714Y-65023809D01*
X68785714Y-65261904D01*
X68738095Y-65357142D01*
X68690476Y-65404761D01*
X68595238Y-65452380D01*
X68309523Y-65452380D01*
X68214285Y-65404761D01*
X68166666Y-65357142D01*
D12*
%TO.C,IC1*%
X54260238Y-51074523D02*
X54260238Y-49804523D01*
X55590714Y-50953571D02*
X55530238Y-51014047D01*
X55348809Y-51074523D01*
X55227857Y-51074523D01*
X55046428Y-51014047D01*
X54925476Y-50893095D01*
X54865000Y-50772142D01*
X54804523Y-50530238D01*
X54804523Y-50348809D01*
X54865000Y-50106904D01*
X54925476Y-49985952D01*
X55046428Y-49865000D01*
X55227857Y-49804523D01*
X55348809Y-49804523D01*
X55530238Y-49865000D01*
X55590714Y-49925476D01*
X56800238Y-51074523D02*
X56074523Y-51074523D01*
X56437380Y-51074523D02*
X56437380Y-49804523D01*
X56316428Y-49985952D01*
X56195476Y-50106904D01*
X56074523Y-50167380D01*
%TO.C,IC2*%
X54760238Y-57574523D02*
X54760238Y-56304523D01*
X56090714Y-57453571D02*
X56030238Y-57514047D01*
X55848809Y-57574523D01*
X55727857Y-57574523D01*
X55546428Y-57514047D01*
X55425476Y-57393095D01*
X55365000Y-57272142D01*
X55304523Y-57030238D01*
X55304523Y-56848809D01*
X55365000Y-56606904D01*
X55425476Y-56485952D01*
X55546428Y-56365000D01*
X55727857Y-56304523D01*
X55848809Y-56304523D01*
X56030238Y-56365000D01*
X56090714Y-56425476D01*
X56574523Y-56425476D02*
X56635000Y-56365000D01*
X56755952Y-56304523D01*
X57058333Y-56304523D01*
X57179285Y-56365000D01*
X57239761Y-56425476D01*
X57300238Y-56546428D01*
X57300238Y-56667380D01*
X57239761Y-56848809D01*
X56514047Y-57574523D01*
X57300238Y-57574523D01*
D10*
%TO.C,C2*%
X47333333Y-75357142D02*
X47285714Y-75404761D01*
X47142857Y-75452380D01*
X47047619Y-75452380D01*
X46904761Y-75404761D01*
X46809523Y-75309523D01*
X46761904Y-75214285D01*
X46714285Y-75023809D01*
X46714285Y-74880952D01*
X46761904Y-74690476D01*
X46809523Y-74595238D01*
X46904761Y-74500000D01*
X47047619Y-74452380D01*
X47142857Y-74452380D01*
X47285714Y-74500000D01*
X47333333Y-74547619D01*
X47714285Y-74547619D02*
X47761904Y-74500000D01*
X47857142Y-74452380D01*
X48095238Y-74452380D01*
X48190476Y-74500000D01*
X48238095Y-74547619D01*
X48285714Y-74642857D01*
X48285714Y-74738095D01*
X48238095Y-74880952D01*
X47666666Y-75452380D01*
X48285714Y-75452380D01*
D12*
%TO.C,Q1*%
X79695476Y-50620952D02*
X79635000Y-50741904D01*
X79514047Y-50862857D01*
X79332619Y-51044285D01*
X79272142Y-51165238D01*
X79272142Y-51286190D01*
X79574523Y-51225714D02*
X79514047Y-51346666D01*
X79393095Y-51467619D01*
X79151190Y-51528095D01*
X78727857Y-51528095D01*
X78485952Y-51467619D01*
X78365000Y-51346666D01*
X78304523Y-51225714D01*
X78304523Y-50983809D01*
X78365000Y-50862857D01*
X78485952Y-50741904D01*
X78727857Y-50681428D01*
X79151190Y-50681428D01*
X79393095Y-50741904D01*
X79514047Y-50862857D01*
X79574523Y-50983809D01*
X79574523Y-51225714D01*
X79574523Y-49471904D02*
X79574523Y-50197619D01*
X79574523Y-49834761D02*
X78304523Y-49834761D01*
X78485952Y-49955714D01*
X78606904Y-50076666D01*
X78667380Y-50197619D01*
D10*
%TO.C,R1*%
X67833333Y-57952380D02*
X67500000Y-57476190D01*
X67261904Y-57952380D02*
X67261904Y-56952380D01*
X67642857Y-56952380D01*
X67738095Y-57000000D01*
X67785714Y-57047619D01*
X67833333Y-57142857D01*
X67833333Y-57285714D01*
X67785714Y-57380952D01*
X67738095Y-57428571D01*
X67642857Y-57476190D01*
X67261904Y-57476190D01*
X68785714Y-57952380D02*
X68214285Y-57952380D01*
X68500000Y-57952380D02*
X68500000Y-56952380D01*
X68404761Y-57095238D01*
X68309523Y-57190476D01*
X68214285Y-57238095D01*
%TO.C,J2*%
X85166666Y-49952380D02*
X85166666Y-50666666D01*
X85119047Y-50809523D01*
X85023809Y-50904761D01*
X84880952Y-50952380D01*
X84785714Y-50952380D01*
X85595238Y-50047619D02*
X85642857Y-50000000D01*
X85738095Y-49952380D01*
X85976190Y-49952380D01*
X86071428Y-50000000D01*
X86119047Y-50047619D01*
X86166666Y-50142857D01*
X86166666Y-50238095D01*
X86119047Y-50380952D01*
X85547619Y-50952380D01*
X86166666Y-50952380D01*
%TO.C,R7*%
X93333333Y-56452380D02*
X93000000Y-55976190D01*
X92761904Y-56452380D02*
X92761904Y-55452380D01*
X93142857Y-55452380D01*
X93238095Y-55500000D01*
X93285714Y-55547619D01*
X93333333Y-55642857D01*
X93333333Y-55785714D01*
X93285714Y-55880952D01*
X93238095Y-55928571D01*
X93142857Y-55976190D01*
X92761904Y-55976190D01*
X93666666Y-55452380D02*
X94333333Y-55452380D01*
X93904761Y-56452380D01*
%TO.C,R5*%
X67833333Y-68952380D02*
X67500000Y-68476190D01*
X67261904Y-68952380D02*
X67261904Y-67952380D01*
X67642857Y-67952380D01*
X67738095Y-68000000D01*
X67785714Y-68047619D01*
X67833333Y-68142857D01*
X67833333Y-68285714D01*
X67785714Y-68380952D01*
X67738095Y-68428571D01*
X67642857Y-68476190D01*
X67261904Y-68476190D01*
X68738095Y-67952380D02*
X68261904Y-67952380D01*
X68214285Y-68428571D01*
X68261904Y-68380952D01*
X68357142Y-68333333D01*
X68595238Y-68333333D01*
X68690476Y-68380952D01*
X68738095Y-68428571D01*
X68785714Y-68523809D01*
X68785714Y-68761904D01*
X68738095Y-68857142D01*
X68690476Y-68904761D01*
X68595238Y-68952380D01*
X68357142Y-68952380D01*
X68261904Y-68904761D01*
X68214285Y-68857142D01*
D12*
%TO.C,IC3*%
X79760238Y-60074523D02*
X79760238Y-58804523D01*
X81090714Y-59953571D02*
X81030238Y-60014047D01*
X80848809Y-60074523D01*
X80727857Y-60074523D01*
X80546428Y-60014047D01*
X80425476Y-59893095D01*
X80365000Y-59772142D01*
X80304523Y-59530238D01*
X80304523Y-59348809D01*
X80365000Y-59106904D01*
X80425476Y-58985952D01*
X80546428Y-58865000D01*
X80727857Y-58804523D01*
X80848809Y-58804523D01*
X81030238Y-58865000D01*
X81090714Y-58925476D01*
X81514047Y-58804523D02*
X82300238Y-58804523D01*
X81876904Y-59288333D01*
X82058333Y-59288333D01*
X82179285Y-59348809D01*
X82239761Y-59409285D01*
X82300238Y-59530238D01*
X82300238Y-59832619D01*
X82239761Y-59953571D01*
X82179285Y-60014047D01*
X82058333Y-60074523D01*
X81695476Y-60074523D01*
X81574523Y-60014047D01*
X81514047Y-59953571D01*
D13*
%TO.C,C3*%
X75449000Y-79247000D02*
X75449000Y-70753000D01*
X73649000Y-77209000D02*
X73649000Y-72791000D01*
X76689000Y-79837000D02*
X76689000Y-76040000D01*
X75529000Y-79298000D02*
X75529000Y-70702000D01*
X76569000Y-73960000D02*
X76569000Y-70203000D01*
X76209000Y-79657000D02*
X76209000Y-76040000D01*
X76329000Y-73960000D02*
X76329000Y-70293000D01*
X73169000Y-75599000D02*
X73169000Y-74401000D01*
X77409000Y-73960000D02*
X77409000Y-69989000D01*
X75689000Y-79395000D02*
X75689000Y-70605000D01*
X77489000Y-73960000D02*
X77489000Y-69976000D01*
X74329000Y-78254000D02*
X74329000Y-71746000D01*
X78130000Y-80079000D02*
X78130000Y-69921000D01*
X77810000Y-73960000D02*
X77810000Y-69938000D01*
X77850000Y-73960000D02*
X77850000Y-69935000D01*
X77009000Y-73960000D02*
X77009000Y-70072000D01*
X78010000Y-73960000D02*
X78010000Y-69925000D01*
X83229646Y-78375000D02*
X83229646Y-77375000D01*
X77810000Y-80062000D02*
X77810000Y-76040000D01*
X77329000Y-79997000D02*
X77329000Y-76040000D01*
X76409000Y-79738000D02*
X76409000Y-76040000D01*
X74609000Y-78561000D02*
X74609000Y-71439000D01*
X77529000Y-80030000D02*
X77529000Y-76040000D01*
X73609000Y-77125000D02*
X73609000Y-72875000D01*
X77930000Y-73960000D02*
X77930000Y-69930000D01*
X74129000Y-78000000D02*
X74129000Y-72000000D01*
X73689000Y-77289000D02*
X73689000Y-72711000D01*
X76049000Y-79584000D02*
X76049000Y-76040000D01*
X74729000Y-78679000D02*
X74729000Y-71321000D01*
X77249000Y-73960000D02*
X77249000Y-70018000D01*
X77249000Y-79982000D02*
X77249000Y-76040000D01*
X74369000Y-78301000D02*
X74369000Y-71699000D01*
X75609000Y-79347000D02*
X75609000Y-70653000D01*
X76409000Y-73960000D02*
X76409000Y-70262000D01*
X76849000Y-73960000D02*
X76849000Y-70115000D01*
X73849000Y-77579000D02*
X73849000Y-72421000D01*
X77289000Y-79990000D02*
X77289000Y-76040000D01*
X75809000Y-79462000D02*
X75809000Y-70538000D01*
X76049000Y-73960000D02*
X76049000Y-70416000D01*
X75089000Y-78989000D02*
X75089000Y-71011000D01*
X73449000Y-76742000D02*
X73449000Y-73258000D01*
X77449000Y-73960000D02*
X77449000Y-69982000D01*
X76009000Y-79564000D02*
X76009000Y-76040000D01*
X73969000Y-77770000D02*
X73969000Y-72230000D01*
X76729000Y-79850000D02*
X76729000Y-76040000D01*
X76529000Y-73960000D02*
X76529000Y-70217000D01*
X76369000Y-79723000D02*
X76369000Y-76040000D01*
X76169000Y-79639000D02*
X76169000Y-76040000D01*
X76009000Y-73960000D02*
X76009000Y-70436000D01*
X73249000Y-76062000D02*
X73249000Y-73938000D01*
X77209000Y-79974000D02*
X77209000Y-76040000D01*
X77770000Y-73960000D02*
X77770000Y-69942000D01*
X76129000Y-73960000D02*
X76129000Y-70379000D01*
X76449000Y-73960000D02*
X76449000Y-70246000D01*
X74849000Y-78789000D02*
X74849000Y-71211000D01*
X78250000Y-80080000D02*
X78250000Y-69920000D01*
X76769000Y-79862000D02*
X76769000Y-76040000D01*
X76769000Y-73960000D02*
X76769000Y-70138000D01*
X76929000Y-79907000D02*
X76929000Y-76040000D01*
X74529000Y-78478000D02*
X74529000Y-71522000D01*
X73369000Y-76510000D02*
X73369000Y-73490000D01*
X76809000Y-79874000D02*
X76809000Y-76040000D01*
X77970000Y-73960000D02*
X77970000Y-69927000D01*
X77730000Y-73960000D02*
X77730000Y-69946000D01*
X75369000Y-79194000D02*
X75369000Y-70806000D01*
X77369000Y-73960000D02*
X77369000Y-69996000D01*
X75849000Y-79483000D02*
X75849000Y-70517000D01*
X74889000Y-78824000D02*
X74889000Y-71176000D01*
X78210000Y-80080000D02*
X78210000Y-69920000D01*
X73929000Y-77709000D02*
X73929000Y-72291000D01*
X74969000Y-78892000D02*
X74969000Y-71108000D01*
X76369000Y-73960000D02*
X76369000Y-70277000D01*
X77890000Y-73960000D02*
X77890000Y-69932000D01*
X74409000Y-78347000D02*
X74409000Y-71653000D01*
X76289000Y-79690000D02*
X76289000Y-76040000D01*
X75409000Y-79221000D02*
X75409000Y-70779000D01*
X77369000Y-80004000D02*
X77369000Y-76040000D01*
X77129000Y-73960000D02*
X77129000Y-70044000D01*
X75729000Y-79417000D02*
X75729000Y-70583000D01*
X76449000Y-79754000D02*
X76449000Y-76040000D01*
X76329000Y-79707000D02*
X76329000Y-76040000D01*
X75129000Y-79020000D02*
X75129000Y-70980000D01*
X76929000Y-73960000D02*
X76929000Y-70093000D01*
X74249000Y-78156000D02*
X74249000Y-71844000D01*
X75489000Y-79273000D02*
X75489000Y-70727000D01*
X76209000Y-73960000D02*
X76209000Y-70343000D01*
X73809000Y-77510000D02*
X73809000Y-72490000D01*
X75249000Y-79110000D02*
X75249000Y-70890000D01*
X77209000Y-73960000D02*
X77209000Y-70026000D01*
X76889000Y-73960000D02*
X76889000Y-70103000D01*
X76849000Y-79885000D02*
X76849000Y-76040000D01*
X77409000Y-80011000D02*
X77409000Y-76040000D01*
X77529000Y-73960000D02*
X77529000Y-69970000D01*
X77289000Y-73960000D02*
X77289000Y-70010000D01*
X74049000Y-77889000D02*
X74049000Y-72111000D01*
X76569000Y-79797000D02*
X76569000Y-76040000D01*
X75209000Y-79080000D02*
X75209000Y-70920000D01*
X77970000Y-80073000D02*
X77970000Y-76040000D01*
X76969000Y-79918000D02*
X76969000Y-76040000D01*
X77449000Y-80018000D02*
X77449000Y-76040000D01*
X77329000Y-73960000D02*
X77329000Y-70003000D01*
X77730000Y-80054000D02*
X77730000Y-76040000D01*
X74689000Y-78640000D02*
X74689000Y-71360000D01*
X77129000Y-79956000D02*
X77129000Y-76040000D01*
X75169000Y-79050000D02*
X75169000Y-70950000D01*
X76249000Y-73960000D02*
X76249000Y-70326000D01*
X75289000Y-79138000D02*
X75289000Y-70862000D01*
X74289000Y-78206000D02*
X74289000Y-71794000D01*
X77610000Y-80040000D02*
X77610000Y-76040000D01*
X75329000Y-79166000D02*
X75329000Y-70834000D01*
X73289000Y-76230000D02*
X73289000Y-73770000D01*
X76529000Y-79783000D02*
X76529000Y-76040000D01*
X75049000Y-78957000D02*
X75049000Y-71043000D01*
X77049000Y-73960000D02*
X77049000Y-70062000D01*
X77169000Y-73960000D02*
X77169000Y-70035000D01*
X76809000Y-73960000D02*
X76809000Y-70126000D01*
X75649000Y-79371000D02*
X75649000Y-70629000D01*
X73569000Y-77037000D02*
X73569000Y-72963000D01*
X76689000Y-73960000D02*
X76689000Y-70163000D01*
X73489000Y-76846000D02*
X73489000Y-73154000D01*
X76089000Y-79603000D02*
X76089000Y-76040000D01*
X77570000Y-80035000D02*
X77570000Y-76040000D01*
X76969000Y-73960000D02*
X76969000Y-70082000D01*
X73529000Y-76944000D02*
X73529000Y-73056000D01*
X77089000Y-79947000D02*
X77089000Y-76040000D01*
X73889000Y-77645000D02*
X73889000Y-72355000D01*
X73769000Y-77439000D02*
X73769000Y-72561000D01*
X76649000Y-73960000D02*
X76649000Y-70176000D01*
X76489000Y-73960000D02*
X76489000Y-70232000D01*
X73729000Y-77365000D02*
X73729000Y-72635000D01*
X74449000Y-78392000D02*
X74449000Y-71608000D01*
X74809000Y-78753000D02*
X74809000Y-71247000D01*
X74649000Y-78601000D02*
X74649000Y-71399000D01*
X74569000Y-78520000D02*
X74569000Y-71480000D01*
X77570000Y-73960000D02*
X77570000Y-69965000D01*
X74929000Y-78858000D02*
X74929000Y-71142000D01*
X75009000Y-78925000D02*
X75009000Y-71075000D01*
X77930000Y-80070000D02*
X77930000Y-76040000D01*
X76889000Y-79897000D02*
X76889000Y-76040000D01*
X74089000Y-77945000D02*
X74089000Y-72055000D01*
X77890000Y-80068000D02*
X77890000Y-76040000D01*
X78090000Y-80078000D02*
X78090000Y-69922000D01*
X75969000Y-79545000D02*
X75969000Y-76040000D01*
X77650000Y-73960000D02*
X77650000Y-69955000D01*
X77690000Y-80050000D02*
X77690000Y-76040000D01*
X76489000Y-79768000D02*
X76489000Y-76040000D01*
X77169000Y-79965000D02*
X77169000Y-76040000D01*
X76249000Y-79674000D02*
X76249000Y-76040000D01*
X76729000Y-73960000D02*
X76729000Y-70150000D01*
X77650000Y-80045000D02*
X77650000Y-76040000D01*
X78170000Y-80080000D02*
X78170000Y-69920000D01*
X76609000Y-73960000D02*
X76609000Y-70189000D01*
X76289000Y-73960000D02*
X76289000Y-70310000D01*
X74489000Y-78436000D02*
X74489000Y-71564000D01*
X75569000Y-79323000D02*
X75569000Y-70677000D01*
X77049000Y-79938000D02*
X77049000Y-76040000D01*
X75769000Y-79440000D02*
X75769000Y-70560000D01*
X74769000Y-78716000D02*
X74769000Y-71284000D01*
X75929000Y-79525000D02*
X75929000Y-70475000D01*
X76609000Y-79811000D02*
X76609000Y-76040000D01*
X75889000Y-79504000D02*
X75889000Y-70496000D01*
X76649000Y-79824000D02*
X76649000Y-76040000D01*
X76089000Y-73960000D02*
X76089000Y-70397000D01*
X73409000Y-76630000D02*
X73409000Y-73370000D01*
X77850000Y-80065000D02*
X77850000Y-76040000D01*
X77089000Y-73960000D02*
X77089000Y-70053000D01*
X76129000Y-79621000D02*
X76129000Y-76040000D01*
X77489000Y-80024000D02*
X77489000Y-76040000D01*
X77610000Y-73960000D02*
X77610000Y-69960000D01*
X77690000Y-73960000D02*
X77690000Y-69950000D01*
X83729646Y-77875000D02*
X82729646Y-77875000D01*
X76169000Y-73960000D02*
X76169000Y-70361000D01*
X78050000Y-80077000D02*
X78050000Y-69923000D01*
X74209000Y-78106000D02*
X74209000Y-71894000D01*
X73329000Y-76378000D02*
X73329000Y-73622000D01*
X77770000Y-80058000D02*
X77770000Y-76040000D01*
X77009000Y-79928000D02*
X77009000Y-76040000D01*
X75969000Y-73960000D02*
X75969000Y-70455000D01*
X74169000Y-78054000D02*
X74169000Y-71946000D01*
X74009000Y-77830000D02*
X74009000Y-72170000D01*
X78010000Y-80075000D02*
X78010000Y-76040000D01*
X73209000Y-75862000D02*
X73209000Y-74138000D01*
X83370000Y-75000000D02*
G75*
G03*
X83370000Y-75000000I-5120000J0D01*
G01*
D14*
%TO.C,D1*%
X50650000Y-49875000D02*
X50650000Y-48125000D01*
X49350000Y-50662000D02*
X49350000Y-48125000D01*
%TO.C,VR1*%
X118750000Y-68000000D02*
X112750000Y-68000000D01*
X118750000Y-74000000D02*
X118750000Y-68000000D01*
X94250000Y-79500000D02*
X94250000Y-62500000D01*
X112750000Y-68500000D02*
X110250000Y-68500000D01*
X94250000Y-62500000D02*
X103750000Y-62500000D01*
X110250000Y-67500000D02*
X103750000Y-67500000D01*
X103750000Y-62500000D02*
X103750000Y-79500000D01*
X112750000Y-74000000D02*
X118750000Y-74000000D01*
X110250000Y-74500000D02*
X110250000Y-67500000D01*
X99950000Y-80200000D02*
X99950000Y-80200000D01*
X110250000Y-73500000D02*
X112750000Y-73500000D01*
X99950000Y-80000000D02*
X99950000Y-80000000D01*
X112750000Y-73500000D02*
X112750000Y-68500000D01*
X103750000Y-79500000D02*
X94250000Y-79500000D01*
X112750000Y-68000000D02*
X112750000Y-68500000D01*
X103750000Y-74500000D02*
X110250000Y-74500000D01*
X112750000Y-73500000D02*
X112750000Y-74000000D01*
X99950000Y-80000000D02*
G75*
G03*
X99950000Y-80200000I0J-100000D01*
G01*
X99950000Y-80200000D02*
G75*
G03*
X99950000Y-80000000I0J100000D01*
G01*
D13*
%TO.C,R2*%
X62690000Y-53000000D02*
X63380000Y-53000000D01*
X63380000Y-51280000D02*
X63380000Y-54720000D01*
X72620000Y-54720000D02*
X72620000Y-51280000D01*
X73310000Y-53000000D02*
X72620000Y-53000000D01*
X72620000Y-51280000D02*
X63380000Y-51280000D01*
X63380000Y-54720000D02*
X72620000Y-54720000D01*
%TO.C,R4*%
X63380000Y-59280000D02*
X63380000Y-62720000D01*
X63380000Y-62720000D02*
X72620000Y-62720000D01*
X72620000Y-59280000D02*
X63380000Y-59280000D01*
X72620000Y-62720000D02*
X72620000Y-59280000D01*
X62690000Y-61000000D02*
X63380000Y-61000000D01*
X73310000Y-61000000D02*
X72620000Y-61000000D01*
%TO.C,R8*%
X88190000Y-60000000D02*
X88880000Y-60000000D01*
X98810000Y-60000000D02*
X98120000Y-60000000D01*
X98120000Y-58280000D02*
X88880000Y-58280000D01*
X98120000Y-61720000D02*
X98120000Y-58280000D01*
X88880000Y-61720000D02*
X98120000Y-61720000D01*
X88880000Y-58280000D02*
X88880000Y-61720000D01*
%TO.C,J1*%
X45170000Y-53095000D02*
X47830000Y-53095000D01*
X45170000Y-49225000D02*
X45170000Y-47895000D01*
X45170000Y-50495000D02*
X45170000Y-53095000D01*
X45170000Y-50495000D02*
X47830000Y-50495000D01*
X47830000Y-50495000D02*
X47830000Y-53095000D01*
X45170000Y-47895000D02*
X46500000Y-47895000D01*
%TO.C,R6*%
X63380000Y-50720000D02*
X72620000Y-50720000D01*
X62690000Y-49000000D02*
X63380000Y-49000000D01*
X72620000Y-47280000D02*
X63380000Y-47280000D01*
X72620000Y-50720000D02*
X72620000Y-47280000D01*
X63380000Y-47280000D02*
X63380000Y-50720000D01*
X73310000Y-49000000D02*
X72620000Y-49000000D01*
%TO.C,C1*%
X48945000Y-55120000D02*
X48880000Y-55120000D01*
X51120000Y-55120000D02*
X51055000Y-55120000D01*
X48880000Y-51880000D02*
X48880000Y-55120000D01*
X48945000Y-51880000D02*
X48880000Y-51880000D01*
X51120000Y-51880000D02*
X51120000Y-55120000D01*
X51120000Y-51880000D02*
X51055000Y-51880000D01*
%TO.C,R3*%
X72620000Y-66720000D02*
X72620000Y-63280000D01*
X62690000Y-65000000D02*
X63380000Y-65000000D01*
X72620000Y-63280000D02*
X63380000Y-63280000D01*
X73310000Y-65000000D02*
X72620000Y-65000000D01*
X63380000Y-63280000D02*
X63380000Y-66720000D01*
X63380000Y-66720000D02*
X72620000Y-66720000D01*
D14*
%TO.C,IC1*%
X57100000Y-52945000D02*
X53900000Y-52945000D01*
X53900000Y-52945000D02*
X53900000Y-48055000D01*
X52000000Y-47920000D02*
X53550000Y-47920000D01*
X57100000Y-48055000D02*
X57100000Y-52945000D01*
X53900000Y-48055000D02*
X57100000Y-48055000D01*
%TO.C,IC2*%
X54250000Y-53750000D02*
X57750000Y-53750000D01*
X54250000Y-60250000D02*
X54250000Y-53750000D01*
X57750000Y-53750000D02*
X57750000Y-60250000D01*
X57750000Y-60250000D02*
X54250000Y-60250000D01*
X52000000Y-53900000D02*
X53500000Y-53900000D01*
D13*
%TO.C,C2*%
X59053323Y-73622000D02*
X59053323Y-76378000D01*
X54452323Y-69930000D02*
X54452323Y-73960000D01*
X56853323Y-70702000D02*
X56853323Y-79298000D01*
X56213323Y-70361000D02*
X56213323Y-73960000D01*
X55053323Y-70003000D02*
X55053323Y-73960000D01*
X56253323Y-70379000D02*
X56253323Y-73960000D01*
X56013323Y-70277000D02*
X56013323Y-73960000D01*
X58493323Y-72355000D02*
X58493323Y-77645000D01*
X58653323Y-72635000D02*
X58653323Y-77365000D01*
X55493323Y-70103000D02*
X55493323Y-73960000D01*
X56133323Y-70326000D02*
X56133323Y-73960000D01*
X56253323Y-76040000D02*
X56253323Y-79621000D01*
X55253323Y-76040000D02*
X55253323Y-79956000D01*
X54853323Y-76040000D02*
X54853323Y-80030000D01*
X56333323Y-70416000D02*
X56333323Y-73960000D01*
X56453323Y-70475000D02*
X56453323Y-79525000D01*
X55773323Y-76040000D02*
X55773323Y-79811000D01*
X55573323Y-76040000D02*
X55573323Y-79874000D01*
X55013323Y-69996000D02*
X55013323Y-73960000D01*
X57493323Y-71176000D02*
X57493323Y-78824000D01*
X55613323Y-76040000D02*
X55613323Y-79862000D01*
X55933323Y-76040000D02*
X55933323Y-79754000D01*
X56333323Y-76040000D02*
X56333323Y-79584000D01*
X58453323Y-72291000D02*
X58453323Y-77709000D01*
X58693323Y-72711000D02*
X58693323Y-77289000D01*
X59213323Y-74401000D02*
X59213323Y-75599000D01*
X58333323Y-72111000D02*
X58333323Y-77889000D01*
X58293323Y-72055000D02*
X58293323Y-77945000D01*
X55533323Y-76040000D02*
X55533323Y-79885000D01*
X54772323Y-76040000D02*
X54772323Y-80040000D01*
X55533323Y-70115000D02*
X55533323Y-73960000D01*
X55293323Y-76040000D02*
X55293323Y-79947000D01*
X55813323Y-76040000D02*
X55813323Y-79797000D01*
X56293323Y-76040000D02*
X56293323Y-79603000D01*
X54732323Y-69955000D02*
X54732323Y-73960000D01*
X54772323Y-69960000D02*
X54772323Y-73960000D01*
X58933323Y-73258000D02*
X58933323Y-76742000D01*
X55413323Y-70082000D02*
X55413323Y-73960000D01*
X58213323Y-71946000D02*
X58213323Y-78054000D01*
X57093323Y-70862000D02*
X57093323Y-79138000D01*
X55693323Y-76040000D02*
X55693323Y-79837000D01*
X49152677Y-71625000D02*
X49152677Y-72625000D01*
X57573323Y-71247000D02*
X57573323Y-78753000D01*
X58253323Y-72000000D02*
X58253323Y-78000000D01*
X56573323Y-70538000D02*
X56573323Y-79462000D01*
X55893323Y-70232000D02*
X55893323Y-73960000D01*
X55373323Y-76040000D02*
X55373323Y-79928000D01*
X55613323Y-70138000D02*
X55613323Y-73960000D01*
X57893323Y-71564000D02*
X57893323Y-78436000D01*
X55333323Y-70062000D02*
X55333323Y-73960000D01*
X54893323Y-76040000D02*
X54893323Y-80024000D01*
X57133323Y-70890000D02*
X57133323Y-79110000D01*
X58613323Y-72561000D02*
X58613323Y-77439000D01*
X56053323Y-76040000D02*
X56053323Y-79707000D01*
X56173323Y-70343000D02*
X56173323Y-73960000D01*
X55373323Y-70072000D02*
X55373323Y-73960000D01*
X54572323Y-69938000D02*
X54572323Y-73960000D01*
X54612323Y-76040000D02*
X54612323Y-80058000D01*
X58773323Y-72875000D02*
X58773323Y-77125000D01*
X54492323Y-69932000D02*
X54492323Y-73960000D01*
X58133323Y-71844000D02*
X58133323Y-78156000D01*
X56413323Y-76040000D02*
X56413323Y-79545000D01*
X55653323Y-76040000D02*
X55653323Y-79850000D01*
X56013323Y-76040000D02*
X56013323Y-79723000D01*
X56613323Y-70560000D02*
X56613323Y-79440000D01*
X57293323Y-71011000D02*
X57293323Y-78989000D01*
X55453323Y-76040000D02*
X55453323Y-79907000D01*
X57773323Y-71439000D02*
X57773323Y-78561000D01*
X56133323Y-76040000D02*
X56133323Y-79674000D01*
X55813323Y-70203000D02*
X55813323Y-73960000D01*
X54692323Y-69950000D02*
X54692323Y-73960000D01*
X58093323Y-71794000D02*
X58093323Y-78206000D01*
X56933323Y-70753000D02*
X56933323Y-79247000D01*
X56533323Y-70517000D02*
X56533323Y-79483000D01*
X58173323Y-71894000D02*
X58173323Y-78106000D01*
X55893323Y-76040000D02*
X55893323Y-79768000D01*
X54652323Y-76040000D02*
X54652323Y-80054000D01*
X57013323Y-70806000D02*
X57013323Y-79194000D01*
X56693323Y-70605000D02*
X56693323Y-79395000D01*
X54372323Y-69925000D02*
X54372323Y-73960000D01*
X54933323Y-76040000D02*
X54933323Y-80018000D01*
X56733323Y-70629000D02*
X56733323Y-79371000D01*
X56093323Y-70310000D02*
X56093323Y-73960000D01*
X55573323Y-70126000D02*
X55573323Y-73960000D01*
X56373323Y-76040000D02*
X56373323Y-79564000D01*
X57733323Y-71399000D02*
X57733323Y-78601000D01*
X56773323Y-70653000D02*
X56773323Y-79347000D01*
X55853323Y-76040000D02*
X55853323Y-79783000D01*
X54452323Y-76040000D02*
X54452323Y-80070000D01*
X54492323Y-76040000D02*
X54492323Y-80068000D01*
X58533323Y-72421000D02*
X58533323Y-77579000D01*
X55973323Y-76040000D02*
X55973323Y-79738000D01*
X54412323Y-76040000D02*
X54412323Y-80073000D01*
X56293323Y-70397000D02*
X56293323Y-73960000D01*
X54172323Y-69920000D02*
X54172323Y-80080000D01*
X58853323Y-73056000D02*
X58853323Y-76944000D01*
X58413323Y-72230000D02*
X58413323Y-77770000D01*
X56893323Y-70727000D02*
X56893323Y-79273000D01*
X58893323Y-73154000D02*
X58893323Y-76846000D01*
X54933323Y-69982000D02*
X54933323Y-73960000D01*
X57533323Y-71211000D02*
X57533323Y-78789000D01*
X57173323Y-70920000D02*
X57173323Y-79080000D01*
X58053323Y-71746000D02*
X58053323Y-78254000D01*
X55173323Y-76040000D02*
X55173323Y-79974000D01*
X57253323Y-70980000D02*
X57253323Y-79020000D01*
X55093323Y-76040000D02*
X55093323Y-79990000D01*
X57213323Y-70950000D02*
X57213323Y-79050000D01*
X54652323Y-69946000D02*
X54652323Y-73960000D01*
X58813323Y-72963000D02*
X58813323Y-77037000D01*
X59013323Y-73490000D02*
X59013323Y-76510000D01*
X55293323Y-70053000D02*
X55293323Y-73960000D01*
X56093323Y-76040000D02*
X56093323Y-79690000D01*
X57853323Y-71522000D02*
X57853323Y-78478000D01*
X56813323Y-70677000D02*
X56813323Y-79323000D01*
X54292323Y-69922000D02*
X54292323Y-80078000D01*
X54973323Y-69989000D02*
X54973323Y-73960000D01*
X56373323Y-70436000D02*
X56373323Y-73960000D01*
X56493323Y-70496000D02*
X56493323Y-79504000D01*
X55693323Y-70163000D02*
X55693323Y-73960000D01*
X54612323Y-69942000D02*
X54612323Y-73960000D01*
X56053323Y-70293000D02*
X56053323Y-73960000D01*
X54252323Y-69921000D02*
X54252323Y-80079000D01*
X55173323Y-70026000D02*
X55173323Y-73960000D01*
X54132323Y-69920000D02*
X54132323Y-80080000D01*
X55773323Y-70189000D02*
X55773323Y-73960000D01*
X56213323Y-76040000D02*
X56213323Y-79639000D01*
X54332323Y-69923000D02*
X54332323Y-80077000D01*
X54973323Y-76040000D02*
X54973323Y-80011000D01*
X56973323Y-70779000D02*
X56973323Y-79221000D01*
X55013323Y-76040000D02*
X55013323Y-80004000D01*
X54572323Y-76040000D02*
X54572323Y-80062000D01*
X57613323Y-71284000D02*
X57613323Y-78716000D01*
X55413323Y-76040000D02*
X55413323Y-79918000D01*
X54412323Y-69927000D02*
X54412323Y-73960000D01*
X57053323Y-70834000D02*
X57053323Y-79166000D01*
X57693323Y-71360000D02*
X57693323Y-78640000D01*
X55653323Y-70150000D02*
X55653323Y-73960000D01*
X55853323Y-70217000D02*
X55853323Y-73960000D01*
X54532323Y-69935000D02*
X54532323Y-73960000D01*
X55973323Y-70262000D02*
X55973323Y-73960000D01*
X55733323Y-70176000D02*
X55733323Y-73960000D01*
X55933323Y-70246000D02*
X55933323Y-73960000D01*
X54812323Y-76040000D02*
X54812323Y-80035000D01*
X55493323Y-76040000D02*
X55493323Y-79897000D01*
X58573323Y-72490000D02*
X58573323Y-77510000D01*
X57813323Y-71480000D02*
X57813323Y-78520000D01*
X58973323Y-73370000D02*
X58973323Y-76630000D01*
X55453323Y-70093000D02*
X55453323Y-73960000D01*
X59173323Y-74138000D02*
X59173323Y-75862000D01*
X55053323Y-76040000D02*
X55053323Y-79997000D01*
X58373323Y-72170000D02*
X58373323Y-77830000D01*
X54732323Y-76040000D02*
X54732323Y-80045000D01*
X54853323Y-69970000D02*
X54853323Y-73960000D01*
X54893323Y-69976000D02*
X54893323Y-73960000D01*
X55213323Y-70035000D02*
X55213323Y-73960000D01*
X55333323Y-76040000D02*
X55333323Y-79938000D01*
X55733323Y-76040000D02*
X55733323Y-79824000D01*
X55213323Y-76040000D02*
X55213323Y-79965000D01*
X55093323Y-70010000D02*
X55093323Y-73960000D01*
X57973323Y-71653000D02*
X57973323Y-78347000D01*
X54212323Y-69920000D02*
X54212323Y-80080000D01*
X54372323Y-76040000D02*
X54372323Y-80075000D01*
X55253323Y-70044000D02*
X55253323Y-73960000D01*
X56653323Y-70583000D02*
X56653323Y-79417000D01*
X58013323Y-71699000D02*
X58013323Y-78301000D01*
X55133323Y-70018000D02*
X55133323Y-73960000D01*
X54812323Y-69965000D02*
X54812323Y-73960000D01*
X57373323Y-71075000D02*
X57373323Y-78925000D01*
X57933323Y-71608000D02*
X57933323Y-78392000D01*
X57333323Y-71043000D02*
X57333323Y-78957000D01*
X57653323Y-71321000D02*
X57653323Y-78679000D01*
X57453323Y-71142000D02*
X57453323Y-78858000D01*
X59093323Y-73770000D02*
X59093323Y-76230000D01*
X59133323Y-73938000D02*
X59133323Y-76062000D01*
X56413323Y-70455000D02*
X56413323Y-73960000D01*
X54692323Y-76040000D02*
X54692323Y-80050000D01*
X48652677Y-72125000D02*
X49652677Y-72125000D01*
X55133323Y-76040000D02*
X55133323Y-79982000D01*
X54532323Y-76040000D02*
X54532323Y-80065000D01*
X57413323Y-71108000D02*
X57413323Y-78892000D01*
X56173323Y-76040000D02*
X56173323Y-79657000D01*
X58733323Y-72791000D02*
X58733323Y-77209000D01*
X59252323Y-75000000D02*
G75*
G03*
X59252323Y-75000000I-5120000J0D01*
G01*
D14*
%TO.C,Q1*%
X77750000Y-52750000D02*
X80250000Y-52750000D01*
X77750000Y-51700000D02*
X77750000Y-52750000D01*
X80250000Y-48250000D02*
X77750000Y-48250000D01*
X77750000Y-48250000D02*
X77750000Y-49300000D01*
D15*
X81800000Y-49000000D02*
X81800000Y-49000000D01*
X81900000Y-49000000D02*
X81900000Y-49000000D01*
X81900000Y-49000000D02*
G75*
G03*
X81800000Y-49000000I-50000J0D01*
G01*
X81800000Y-49000000D02*
G75*
G03*
X81900000Y-49000000I50000J0D01*
G01*
D13*
%TO.C,R1*%
X72620000Y-58720000D02*
X72620000Y-55280000D01*
X63380000Y-58720000D02*
X72620000Y-58720000D01*
X73310000Y-57000000D02*
X72620000Y-57000000D01*
X62690000Y-57000000D02*
X63380000Y-57000000D01*
X72620000Y-55280000D02*
X63380000Y-55280000D01*
X63380000Y-55280000D02*
X63380000Y-58720000D01*
%TO.C,J2*%
X82905000Y-47170000D02*
X82905000Y-49830000D01*
X85505000Y-47170000D02*
X85505000Y-49830000D01*
X85505000Y-47170000D02*
X82905000Y-47170000D01*
X86775000Y-47170000D02*
X88105000Y-47170000D01*
X85505000Y-49830000D02*
X82905000Y-49830000D01*
X88105000Y-47170000D02*
X88105000Y-48500000D01*
%TO.C,R7*%
X98120000Y-54280000D02*
X88880000Y-54280000D01*
X98810000Y-56000000D02*
X98120000Y-56000000D01*
X88880000Y-57720000D02*
X98120000Y-57720000D01*
X88880000Y-54280000D02*
X88880000Y-57720000D01*
X88190000Y-56000000D02*
X88880000Y-56000000D01*
X98120000Y-57720000D02*
X98120000Y-54280000D01*
%TO.C,R5*%
X63380000Y-66780000D02*
X63380000Y-70220000D01*
X63380000Y-70220000D02*
X72620000Y-70220000D01*
X62690000Y-68500000D02*
X63380000Y-68500000D01*
X72620000Y-66780000D02*
X63380000Y-66780000D01*
X72620000Y-70220000D02*
X72620000Y-66780000D01*
X73310000Y-68500000D02*
X72620000Y-68500000D01*
D14*
%TO.C,IC3*%
X77445000Y-64580000D02*
X84555000Y-64580000D01*
X76450000Y-54420000D02*
X84555000Y-54420000D01*
%TD*%
M02*
